<svg id="icons" xmlns="http://www.w3.org/2000/svg" viewBox="0 0 128 128"><defs><style>.Graphic-Style-5{fill:#fecd43;}.cls-1{fill:#e89836;}.cls-2{fill:#fff;}.cls-3{fill:none;stroke:#3d344c;stroke-linecap:round;stroke-linejoin:round;stroke-width:4px;}</style></defs><title>sunrise</title><path class="Graphic-Style-5" d="M91,78a26.8,26.8,0,0,1-3.19,12.74c-4.85-1.06-9.67-2.46-14.5-3.87-3.88-1.14-7.77-2.28-11.69-3.25-7.97-1.97-16.05-3.23-24.41-2.3A25.842,25.842,0,0,1,37,78,27,27,0,0,1,77.8,54.79,27.182,27.182,0,0,1,88.38,66.4,26.783,26.783,0,0,1,91,78Z"/><path class="cls-1" d="M98.215,80.688a4.464,4.464,0,0,0-2.465-2.812c-1.758-.872-3.887,1.083-4.438-.5a5.083,5.083,0,0,0-.378-1.179,26.721,26.721,0,0,0-2.555-9.8,14.171,14.171,0,0,1-.77,1.7c-2.91,5.44-8.9,7.5-12.19,12.44a12.7,12.7,0,0,0-2.11,6.33c4.83,1.41,9.65,2.81,14.5,3.87a26.6,26.6,0,0,0,1.924-4.546,8.142,8.142,0,0,0,.973-.147,5.62,5.62,0,0,0,5.232-.166C97.627,84.84,98.859,82.666,98.215,80.688Z"/><path class="cls-2" d="M59.5,77c-.63-1.97-1.33-4.13-3.31-5.11-1.68-.83-3.27.15-4.89-.76-.91-.51-1.68-1.8-2.68-2.4a14.568,14.568,0,0,0-7.56-1.76c-.58,0-1.16.03-1.74.08A26.7,26.7,0,0,0,37,78a25.842,25.842,0,0,0,.21,3.32c8.36-.93,16.44.33,24.41,2.3C60.9,81.42,60.2,79.21,59.5,77Z"/><path class="cls-1" d="M64,51a26.887,26.887,0,0,0-19.22,8.05,25.513,25.513,0,0,0,4.17.85c1.88.21,3.74-.39,5.57-.24,2.84.23,4.02,1.66,5.98,3.02,1.86,1.28,4.43,1.21,6.51.64,4.08-1.12,7.86-4.41,10.79-8.53A26.848,26.848,0,0,0,64,51Z"/><path class="cls-3" d="M118,90.18c-10.43,3.45-20.38,2.71-30.19.56-16.72-3.65-33.03-11.38-50.6-9.42C28.52,82.28,19.51,86.62,10,94"/><path class="cls-3" d="M90.93,76.19A27,27,0,0,0,37,78a25.843,25.843,0,0,0,.21,3.32c17.57-1.96,33.88,5.77,50.6,9.42a27.643,27.643,0,0,0,1.93-4.54"/><line class="cls-3" x1="64" y1="34" x2="64" y2="42"/><line class="cls-3" x1="82.595" y1="38.122" x2="79.214" y2="45.373"/><line class="cls-3" x1="97.706" y1="49.717" x2="91.578" y2="54.86"/><line class="cls-3" x1="106.501" y1="66.612" x2="98.773" y2="68.683"/><line class="cls-3" x1="45.405" y1="38.122" x2="48.786" y2="45.373"/><line class="cls-3" x1="30.294" y1="49.717" x2="36.422" y2="54.86"/><line class="cls-3" x1="21.499" y1="66.612" x2="29.227" y2="68.683"/><path class="cls-1" d="M101.956,75.295c1.9-.028,3.261,3.885.7,3.643S96.428,75.375,101.956,75.295Z"/></svg>